<mxfile host="app.diagrams.net" modified="2024-03-15T07:16:40.023Z" agent="Mozilla/5.0 (Windows NT 10.0; Win64; x64; rv:123.0) Gecko/20100101 Firefox/123.0" etag="bZFIjKAbHdzkcL8iCIyM" version="24.0.7" type="device">
  <diagram name="Page-1" id="eqxVsEGV2YC6GFcsAl23">
    <mxGraphModel dx="1000" dy="495" grid="1" gridSize="10" guides="1" tooltips="1" connect="1" arrows="1" fold="1" page="1" pageScale="1" pageWidth="850" pageHeight="1100" math="0" shadow="0">
      <root>
        <mxCell id="0" />
        <mxCell id="1" parent="0" />
        <mxCell id="txJwyMXbq_TiNoUQfFyl-1" value="&lt;div&gt;s2&lt;/div&gt;" style="ellipse;whiteSpace=wrap;html=1;aspect=fixed;" vertex="1" parent="1">
          <mxGeometry x="500" y="380" width="50" height="50" as="geometry" />
        </mxCell>
        <mxCell id="txJwyMXbq_TiNoUQfFyl-5" style="rounded=0;orthogonalLoop=1;jettySize=auto;html=1;endArrow=none;endFill=0;" edge="1" parent="1" source="txJwyMXbq_TiNoUQfFyl-2" target="txJwyMXbq_TiNoUQfFyl-1">
          <mxGeometry relative="1" as="geometry" />
        </mxCell>
        <mxCell id="txJwyMXbq_TiNoUQfFyl-2" value="&lt;div&gt;s1&lt;/div&gt;" style="ellipse;whiteSpace=wrap;html=1;aspect=fixed;direction=south;" vertex="1" parent="1">
          <mxGeometry x="400" y="520" width="55" height="55" as="geometry" />
        </mxCell>
      </root>
    </mxGraphModel>
  </diagram>
</mxfile>
